<mxfile host="app.diagrams.net" modified="2023-11-16T12:15:48.022Z" agent="Mozilla/5.0 (Windows NT 10.0; Win64; x64) AppleWebKit/537.36 (KHTML, like Gecko) Chrome/119.0.0.0 Safari/537.36" etag="p3D2AJZBRF9auBsK6EMB" version="22.1.2" type="github">
  <diagram id="C5RBs43oDa-KdzZeNtuy" name="Page-1">
    <mxGraphModel dx="2074" dy="1128" grid="1" gridSize="10" guides="1" tooltips="1" connect="1" arrows="1" fold="1" page="1" pageScale="1" pageWidth="2339" pageHeight="3300" math="0" shadow="0">
      <root>
        <mxCell id="WIyWlLk6GJQsqaUBKTNV-0" />
        <mxCell id="WIyWlLk6GJQsqaUBKTNV-1" parent="WIyWlLk6GJQsqaUBKTNV-0" />
        <mxCell id="WIyWlLk6GJQsqaUBKTNV-2" value="" style="rounded=0;html=1;jettySize=auto;orthogonalLoop=1;fontSize=11;endArrow=block;endFill=0;endSize=8;strokeWidth=1;shadow=0;labelBackgroundColor=none;edgeStyle=orthogonalEdgeStyle;" parent="WIyWlLk6GJQsqaUBKTNV-1" source="WIyWlLk6GJQsqaUBKTNV-3" target="WIyWlLk6GJQsqaUBKTNV-6" edge="1">
          <mxGeometry relative="1" as="geometry" />
        </mxCell>
        <mxCell id="WIyWlLk6GJQsqaUBKTNV-3" value="Run game" style="rounded=1;whiteSpace=wrap;html=1;fontSize=12;glass=0;strokeWidth=1;shadow=0;" parent="WIyWlLk6GJQsqaUBKTNV-1" vertex="1">
          <mxGeometry x="1040" y="420" width="120" height="40" as="geometry" />
        </mxCell>
        <mxCell id="WIyWlLk6GJQsqaUBKTNV-4" value="Yes" style="rounded=0;html=1;jettySize=auto;orthogonalLoop=1;fontSize=11;endArrow=block;endFill=0;endSize=8;strokeWidth=1;shadow=0;labelBackgroundColor=none;edgeStyle=orthogonalEdgeStyle;" parent="WIyWlLk6GJQsqaUBKTNV-1" source="WIyWlLk6GJQsqaUBKTNV-6" edge="1">
          <mxGeometry x="-0.5057" y="-20" relative="1" as="geometry">
            <mxPoint as="offset" />
            <mxPoint x="1100" y="630" as="targetPoint" />
          </mxGeometry>
        </mxCell>
        <mxCell id="WIyWlLk6GJQsqaUBKTNV-5" value="No" style="edgeStyle=orthogonalEdgeStyle;rounded=0;html=1;jettySize=auto;orthogonalLoop=1;fontSize=11;endArrow=block;endFill=0;endSize=8;strokeWidth=1;shadow=0;labelBackgroundColor=none;" parent="WIyWlLk6GJQsqaUBKTNV-1" source="WIyWlLk6GJQsqaUBKTNV-6" edge="1">
          <mxGeometry x="-0.2074" y="10" relative="1" as="geometry">
            <mxPoint as="offset" />
            <mxPoint x="1200" y="550" as="targetPoint" />
          </mxGeometry>
        </mxCell>
        <mxCell id="WIyWlLk6GJQsqaUBKTNV-6" value="Idle Mode&lt;br&gt;True" style="rhombus;whiteSpace=wrap;html=1;shadow=0;fontFamily=Helvetica;fontSize=12;align=center;strokeWidth=1;spacing=6;spacingTop=-4;" parent="WIyWlLk6GJQsqaUBKTNV-1" vertex="1">
          <mxGeometry x="1050" y="510" width="100" height="80" as="geometry" />
        </mxCell>
        <mxCell id="JyQyaathDO7ByDEJY7KW-3" style="edgeStyle=orthogonalEdgeStyle;rounded=0;orthogonalLoop=1;jettySize=auto;html=1;" edge="1" parent="WIyWlLk6GJQsqaUBKTNV-1" source="JyQyaathDO7ByDEJY7KW-0" target="JyQyaathDO7ByDEJY7KW-7">
          <mxGeometry relative="1" as="geometry">
            <mxPoint x="1255" y="620" as="targetPoint" />
          </mxGeometry>
        </mxCell>
        <mxCell id="JyQyaathDO7ByDEJY7KW-4" value="Yes" style="edgeLabel;html=1;align=center;verticalAlign=middle;resizable=0;points=[];" vertex="1" connectable="0" parent="JyQyaathDO7ByDEJY7KW-3">
          <mxGeometry x="-0.2795" relative="1" as="geometry">
            <mxPoint x="-15" as="offset" />
          </mxGeometry>
        </mxCell>
        <mxCell id="JyQyaathDO7ByDEJY7KW-0" value="Game Mode&lt;br&gt;True" style="rhombus;whiteSpace=wrap;html=1;fillColor=#d5e8d4;strokeColor=#82b366;" vertex="1" parent="WIyWlLk6GJQsqaUBKTNV-1">
          <mxGeometry x="1200" y="510" width="110" height="80" as="geometry" />
        </mxCell>
        <mxCell id="JyQyaathDO7ByDEJY7KW-18" style="edgeStyle=orthogonalEdgeStyle;rounded=0;orthogonalLoop=1;jettySize=auto;html=1;entryX=0.5;entryY=0;entryDx=0;entryDy=0;" edge="1" parent="WIyWlLk6GJQsqaUBKTNV-1" source="JyQyaathDO7ByDEJY7KW-5" target="JyQyaathDO7ByDEJY7KW-17">
          <mxGeometry relative="1" as="geometry" />
        </mxCell>
        <mxCell id="JyQyaathDO7ByDEJY7KW-5" value="Generate&lt;br&gt;Random&lt;br&gt;Fish&lt;br&gt;each 1 sec" style="whiteSpace=wrap;html=1;aspect=fixed;fillColor=#fff2cc;strokeColor=#d6b656;" vertex="1" parent="WIyWlLk6GJQsqaUBKTNV-1">
          <mxGeometry x="1150" y="840" width="80" height="80" as="geometry" />
        </mxCell>
        <mxCell id="JyQyaathDO7ByDEJY7KW-9" style="edgeStyle=orthogonalEdgeStyle;rounded=0;orthogonalLoop=1;jettySize=auto;html=1;" edge="1" parent="WIyWlLk6GJQsqaUBKTNV-1" source="JyQyaathDO7ByDEJY7KW-6">
          <mxGeometry relative="1" as="geometry">
            <mxPoint x="1100" y="710" as="targetPoint" />
          </mxGeometry>
        </mxCell>
        <mxCell id="JyQyaathDO7ByDEJY7KW-6" value="Sound&lt;br&gt;OFF" style="whiteSpace=wrap;html=1;aspect=fixed;" vertex="1" parent="WIyWlLk6GJQsqaUBKTNV-1">
          <mxGeometry x="1075" y="630" width="50" height="50" as="geometry" />
        </mxCell>
        <mxCell id="JyQyaathDO7ByDEJY7KW-12" style="edgeStyle=orthogonalEdgeStyle;rounded=0;orthogonalLoop=1;jettySize=auto;html=1;entryX=0.5;entryY=0;entryDx=0;entryDy=0;" edge="1" parent="WIyWlLk6GJQsqaUBKTNV-1" source="JyQyaathDO7ByDEJY7KW-7" target="JyQyaathDO7ByDEJY7KW-11">
          <mxGeometry relative="1" as="geometry" />
        </mxCell>
        <mxCell id="JyQyaathDO7ByDEJY7KW-7" value="Sound&lt;br&gt;ON" style="whiteSpace=wrap;html=1;aspect=fixed;fillColor=#d5e8d4;strokeColor=#82b366;" vertex="1" parent="WIyWlLk6GJQsqaUBKTNV-1">
          <mxGeometry x="1230" y="630" width="50" height="50" as="geometry" />
        </mxCell>
        <mxCell id="JyQyaathDO7ByDEJY7KW-8" value="Check&lt;br&gt;Count OFF" style="whiteSpace=wrap;html=1;aspect=fixed;" vertex="1" parent="WIyWlLk6GJQsqaUBKTNV-1">
          <mxGeometry x="1070" y="710" width="70" height="70" as="geometry" />
        </mxCell>
        <mxCell id="JyQyaathDO7ByDEJY7KW-11" value="Check&lt;br&gt;Count ON" style="whiteSpace=wrap;html=1;aspect=fixed;fillColor=#d5e8d4;strokeColor=#82b366;" vertex="1" parent="WIyWlLk6GJQsqaUBKTNV-1">
          <mxGeometry x="1220" y="710" width="70" height="70" as="geometry" />
        </mxCell>
        <mxCell id="JyQyaathDO7ByDEJY7KW-13" style="edgeStyle=orthogonalEdgeStyle;rounded=0;orthogonalLoop=1;jettySize=auto;html=1;entryX=0.143;entryY=0.003;entryDx=0;entryDy=0;entryPerimeter=0;" edge="1" parent="WIyWlLk6GJQsqaUBKTNV-1" source="JyQyaathDO7ByDEJY7KW-8" target="JyQyaathDO7ByDEJY7KW-5">
          <mxGeometry relative="1" as="geometry">
            <Array as="points">
              <mxPoint x="1160" y="745" />
              <mxPoint x="1160" y="830" />
              <mxPoint x="1161" y="830" />
            </Array>
          </mxGeometry>
        </mxCell>
        <mxCell id="JyQyaathDO7ByDEJY7KW-14" style="edgeStyle=orthogonalEdgeStyle;rounded=0;orthogonalLoop=1;jettySize=auto;html=1;entryX=0.88;entryY=-0.004;entryDx=0;entryDy=0;entryPerimeter=0;" edge="1" parent="WIyWlLk6GJQsqaUBKTNV-1" source="JyQyaathDO7ByDEJY7KW-11" target="JyQyaathDO7ByDEJY7KW-5">
          <mxGeometry relative="1" as="geometry" />
        </mxCell>
        <mxCell id="JyQyaathDO7ByDEJY7KW-20" style="edgeStyle=orthogonalEdgeStyle;rounded=0;orthogonalLoop=1;jettySize=auto;html=1;entryX=0.5;entryY=0;entryDx=0;entryDy=0;" edge="1" parent="WIyWlLk6GJQsqaUBKTNV-1" source="JyQyaathDO7ByDEJY7KW-17" target="JyQyaathDO7ByDEJY7KW-19">
          <mxGeometry relative="1" as="geometry" />
        </mxCell>
        <mxCell id="JyQyaathDO7ByDEJY7KW-33" style="edgeStyle=orthogonalEdgeStyle;rounded=0;orthogonalLoop=1;jettySize=auto;html=1;" edge="1" parent="WIyWlLk6GJQsqaUBKTNV-1" source="JyQyaathDO7ByDEJY7KW-17">
          <mxGeometry relative="1" as="geometry">
            <mxPoint x="1300" y="1000" as="targetPoint" />
          </mxGeometry>
        </mxCell>
        <mxCell id="JyQyaathDO7ByDEJY7KW-17" value="Frame 0" style="whiteSpace=wrap;html=1;aspect=fixed;" vertex="1" parent="WIyWlLk6GJQsqaUBKTNV-1">
          <mxGeometry x="1160" y="970" width="60" height="60" as="geometry" />
        </mxCell>
        <mxCell id="JyQyaathDO7ByDEJY7KW-22" style="edgeStyle=orthogonalEdgeStyle;rounded=0;orthogonalLoop=1;jettySize=auto;html=1;entryX=0.5;entryY=0;entryDx=0;entryDy=0;" edge="1" parent="WIyWlLk6GJQsqaUBKTNV-1" source="JyQyaathDO7ByDEJY7KW-19" target="JyQyaathDO7ByDEJY7KW-21">
          <mxGeometry relative="1" as="geometry" />
        </mxCell>
        <mxCell id="JyQyaathDO7ByDEJY7KW-19" value="Frame 1" style="whiteSpace=wrap;html=1;aspect=fixed;" vertex="1" parent="WIyWlLk6GJQsqaUBKTNV-1">
          <mxGeometry x="1160" y="1060" width="60" height="60" as="geometry" />
        </mxCell>
        <mxCell id="JyQyaathDO7ByDEJY7KW-25" style="edgeStyle=orthogonalEdgeStyle;rounded=0;orthogonalLoop=1;jettySize=auto;html=1;entryX=0.5;entryY=0;entryDx=0;entryDy=0;" edge="1" parent="WIyWlLk6GJQsqaUBKTNV-1" source="JyQyaathDO7ByDEJY7KW-21" target="JyQyaathDO7ByDEJY7KW-23">
          <mxGeometry relative="1" as="geometry" />
        </mxCell>
        <mxCell id="JyQyaathDO7ByDEJY7KW-21" value="Frame 2" style="whiteSpace=wrap;html=1;aspect=fixed;" vertex="1" parent="WIyWlLk6GJQsqaUBKTNV-1">
          <mxGeometry x="1160" y="1150" width="60" height="60" as="geometry" />
        </mxCell>
        <mxCell id="JyQyaathDO7ByDEJY7KW-23" value="Frame 3" style="whiteSpace=wrap;html=1;aspect=fixed;" vertex="1" parent="WIyWlLk6GJQsqaUBKTNV-1">
          <mxGeometry x="1160" y="1240" width="60" height="60" as="geometry" />
        </mxCell>
        <mxCell id="JyQyaathDO7ByDEJY7KW-26" style="edgeStyle=orthogonalEdgeStyle;rounded=0;orthogonalLoop=1;jettySize=auto;html=1;entryX=0.5;entryY=0;entryDx=0;entryDy=0;" edge="1" parent="WIyWlLk6GJQsqaUBKTNV-1" source="JyQyaathDO7ByDEJY7KW-23">
          <mxGeometry relative="1" as="geometry">
            <mxPoint x="1190" y="1330" as="targetPoint" />
          </mxGeometry>
        </mxCell>
        <mxCell id="JyQyaathDO7ByDEJY7KW-29" style="edgeStyle=orthogonalEdgeStyle;rounded=0;orthogonalLoop=1;jettySize=auto;html=1;" edge="1" parent="WIyWlLk6GJQsqaUBKTNV-1" source="JyQyaathDO7ByDEJY7KW-28">
          <mxGeometry relative="1" as="geometry">
            <mxPoint x="1390" y="1385" as="targetPoint" />
          </mxGeometry>
        </mxCell>
        <mxCell id="JyQyaathDO7ByDEJY7KW-30" value="Yes" style="edgeLabel;html=1;align=center;verticalAlign=middle;resizable=0;points=[];" vertex="1" connectable="0" parent="JyQyaathDO7ByDEJY7KW-29">
          <mxGeometry x="-0.1612" y="-1" relative="1" as="geometry">
            <mxPoint y="-16" as="offset" />
          </mxGeometry>
        </mxCell>
        <mxCell id="JyQyaathDO7ByDEJY7KW-31" style="edgeStyle=orthogonalEdgeStyle;rounded=0;orthogonalLoop=1;jettySize=auto;html=1;" edge="1" parent="WIyWlLk6GJQsqaUBKTNV-1" source="JyQyaathDO7ByDEJY7KW-28">
          <mxGeometry relative="1" as="geometry">
            <mxPoint x="1190" y="1490" as="targetPoint" />
          </mxGeometry>
        </mxCell>
        <mxCell id="JyQyaathDO7ByDEJY7KW-32" value="No" style="edgeLabel;html=1;align=center;verticalAlign=middle;resizable=0;points=[];" vertex="1" connectable="0" parent="JyQyaathDO7ByDEJY7KW-31">
          <mxGeometry x="-0.0556" y="1" relative="1" as="geometry">
            <mxPoint x="-11" as="offset" />
          </mxGeometry>
        </mxCell>
        <mxCell id="JyQyaathDO7ByDEJY7KW-28" value="Frame 4&lt;br&gt;Position Hero = Fish Position" style="rhombus;whiteSpace=wrap;html=1;fillColor=#fff2cc;strokeColor=#d6b656;" vertex="1" parent="WIyWlLk6GJQsqaUBKTNV-1">
          <mxGeometry x="1055" y="1330" width="270" height="110" as="geometry" />
        </mxCell>
        <mxCell id="JyQyaathDO7ByDEJY7KW-36" value="&lt;span style=&quot;color: rgb(0, 0, 0); font-family: Helvetica; font-size: 12px; font-style: normal; font-variant-ligatures: normal; font-variant-caps: normal; font-weight: 400; letter-spacing: normal; orphans: 2; text-align: center; text-indent: 0px; text-transform: none; widows: 2; word-spacing: 0px; -webkit-text-stroke-width: 0px; background-color: rgb(251, 251, 251); text-decoration-thickness: initial; text-decoration-style: initial; text-decoration-color: initial; float: none; display: inline !important;&quot;&gt;Play Normal&amp;nbsp;&lt;/span&gt;&lt;span style=&quot;color: rgb(0, 0, 0); font-family: Helvetica; font-size: 12px; font-style: normal; font-variant-ligatures: normal; font-variant-caps: normal; font-weight: 400; letter-spacing: normal; orphans: 2; text-align: center; text-indent: 0px; text-transform: none; widows: 2; word-spacing: 0px; -webkit-text-stroke-width: 0px; background-color: rgb(251, 251, 251); text-decoration-thickness: initial; text-decoration-style: initial; text-decoration-color: initial; float: none; display: inline !important;&quot;&gt;Sound&lt;/span&gt;" style="rounded=0;whiteSpace=wrap;html=1;fillColor=#d5e8d4;strokeColor=#82b366;" vertex="1" parent="WIyWlLk6GJQsqaUBKTNV-1">
          <mxGeometry x="1300" y="985" width="120" height="30" as="geometry" />
        </mxCell>
        <mxCell id="JyQyaathDO7ByDEJY7KW-37" style="edgeStyle=orthogonalEdgeStyle;rounded=0;orthogonalLoop=1;jettySize=auto;html=1;" edge="1" parent="WIyWlLk6GJQsqaUBKTNV-1">
          <mxGeometry relative="1" as="geometry">
            <mxPoint x="1300" y="1090" as="targetPoint" />
            <mxPoint x="1220" y="1090" as="sourcePoint" />
          </mxGeometry>
        </mxCell>
        <mxCell id="JyQyaathDO7ByDEJY7KW-38" value="&lt;span style=&quot;color: rgb(0, 0, 0); font-family: Helvetica; font-size: 12px; font-style: normal; font-variant-ligatures: normal; font-variant-caps: normal; font-weight: 400; letter-spacing: normal; orphans: 2; text-align: center; text-indent: 0px; text-transform: none; widows: 2; word-spacing: 0px; -webkit-text-stroke-width: 0px; background-color: rgb(251, 251, 251); text-decoration-thickness: initial; text-decoration-style: initial; text-decoration-color: initial; float: none; display: inline !important;&quot;&gt;Play Normal&amp;nbsp;&lt;/span&gt;&lt;span style=&quot;color: rgb(0, 0, 0); font-family: Helvetica; font-size: 12px; font-style: normal; font-variant-ligatures: normal; font-variant-caps: normal; font-weight: 400; letter-spacing: normal; orphans: 2; text-align: center; text-indent: 0px; text-transform: none; widows: 2; word-spacing: 0px; -webkit-text-stroke-width: 0px; background-color: rgb(251, 251, 251); text-decoration-thickness: initial; text-decoration-style: initial; text-decoration-color: initial; float: none; display: inline !important;&quot;&gt;Sound&lt;/span&gt;" style="rounded=0;whiteSpace=wrap;html=1;fillColor=#D5E8D4;strokeColor=#82b366;" vertex="1" parent="WIyWlLk6GJQsqaUBKTNV-1">
          <mxGeometry x="1300" y="1075" width="120" height="30" as="geometry" />
        </mxCell>
        <mxCell id="JyQyaathDO7ByDEJY7KW-39" style="edgeStyle=orthogonalEdgeStyle;rounded=0;orthogonalLoop=1;jettySize=auto;html=1;" edge="1" parent="WIyWlLk6GJQsqaUBKTNV-1">
          <mxGeometry relative="1" as="geometry">
            <mxPoint x="1300" y="1180" as="targetPoint" />
            <mxPoint x="1220" y="1180" as="sourcePoint" />
          </mxGeometry>
        </mxCell>
        <mxCell id="JyQyaathDO7ByDEJY7KW-40" value="&lt;span style=&quot;color: rgb(0, 0, 0); font-family: Helvetica; font-size: 12px; font-style: normal; font-variant-ligatures: normal; font-variant-caps: normal; font-weight: 400; letter-spacing: normal; orphans: 2; text-align: center; text-indent: 0px; text-transform: none; widows: 2; word-spacing: 0px; -webkit-text-stroke-width: 0px; background-color: rgb(251, 251, 251); text-decoration-thickness: initial; text-decoration-style: initial; text-decoration-color: initial; float: none; display: inline !important;&quot;&gt;Play Normal&amp;nbsp;&lt;/span&gt;&lt;span style=&quot;color: rgb(0, 0, 0); font-family: Helvetica; font-size: 12px; font-style: normal; font-variant-ligatures: normal; font-variant-caps: normal; font-weight: 400; letter-spacing: normal; orphans: 2; text-align: center; text-indent: 0px; text-transform: none; widows: 2; word-spacing: 0px; -webkit-text-stroke-width: 0px; background-color: rgb(251, 251, 251); text-decoration-thickness: initial; text-decoration-style: initial; text-decoration-color: initial; float: none; display: inline !important;&quot;&gt;Sound&lt;/span&gt;" style="rounded=0;whiteSpace=wrap;html=1;fillColor=#d5e8d4;strokeColor=#82b366;" vertex="1" parent="WIyWlLk6GJQsqaUBKTNV-1">
          <mxGeometry x="1300" y="1165" width="120" height="30" as="geometry" />
        </mxCell>
        <mxCell id="JyQyaathDO7ByDEJY7KW-41" style="edgeStyle=orthogonalEdgeStyle;rounded=0;orthogonalLoop=1;jettySize=auto;html=1;" edge="1" parent="WIyWlLk6GJQsqaUBKTNV-1">
          <mxGeometry relative="1" as="geometry">
            <mxPoint x="1300" y="1270" as="targetPoint" />
            <mxPoint x="1220" y="1270" as="sourcePoint" />
          </mxGeometry>
        </mxCell>
        <mxCell id="JyQyaathDO7ByDEJY7KW-42" value="&lt;span style=&quot;color: rgb(0, 0, 0); font-family: Helvetica; font-size: 12px; font-style: normal; font-variant-ligatures: normal; font-variant-caps: normal; font-weight: 400; letter-spacing: normal; orphans: 2; text-align: center; text-indent: 0px; text-transform: none; widows: 2; word-spacing: 0px; -webkit-text-stroke-width: 0px; background-color: rgb(251, 251, 251); text-decoration-thickness: initial; text-decoration-style: initial; text-decoration-color: initial; float: none; display: inline !important;&quot;&gt;Play Normal&amp;nbsp;&lt;/span&gt;&lt;span style=&quot;color: rgb(0, 0, 0); font-family: Helvetica; font-size: 12px; font-style: normal; font-variant-ligatures: normal; font-variant-caps: normal; font-weight: 400; letter-spacing: normal; orphans: 2; text-align: center; text-indent: 0px; text-transform: none; widows: 2; word-spacing: 0px; -webkit-text-stroke-width: 0px; background-color: rgb(251, 251, 251); text-decoration-thickness: initial; text-decoration-style: initial; text-decoration-color: initial; float: none; display: inline !important;&quot;&gt;Sound&lt;/span&gt;" style="rounded=0;whiteSpace=wrap;html=1;fillColor=#d5e8d4;strokeColor=#82b366;" vertex="1" parent="WIyWlLk6GJQsqaUBKTNV-1">
          <mxGeometry x="1300" y="1255" width="120" height="30" as="geometry" />
        </mxCell>
        <mxCell id="JyQyaathDO7ByDEJY7KW-45" style="edgeStyle=orthogonalEdgeStyle;rounded=0;orthogonalLoop=1;jettySize=auto;html=1;entryX=1;entryY=0.5;entryDx=0;entryDy=0;" edge="1" parent="WIyWlLk6GJQsqaUBKTNV-1" source="JyQyaathDO7ByDEJY7KW-43" target="JyQyaathDO7ByDEJY7KW-5">
          <mxGeometry relative="1" as="geometry">
            <Array as="points">
              <mxPoint x="1600" y="1410" />
              <mxPoint x="1600" y="880" />
            </Array>
          </mxGeometry>
        </mxCell>
        <mxCell id="JyQyaathDO7ByDEJY7KW-43" value="Play Catch Sound&lt;br&gt;Add 1 win point" style="rounded=0;whiteSpace=wrap;html=1;fillColor=#ffe6cc;strokeColor=#d79b00;" vertex="1" parent="WIyWlLk6GJQsqaUBKTNV-1">
          <mxGeometry x="1390" y="1370" width="120" height="80" as="geometry" />
        </mxCell>
        <mxCell id="JyQyaathDO7ByDEJY7KW-47" style="edgeStyle=orthogonalEdgeStyle;rounded=0;orthogonalLoop=1;jettySize=auto;html=1;entryX=0.5;entryY=0;entryDx=0;entryDy=0;" edge="1" parent="WIyWlLk6GJQsqaUBKTNV-1" source="JyQyaathDO7ByDEJY7KW-44" target="JyQyaathDO7ByDEJY7KW-46">
          <mxGeometry relative="1" as="geometry" />
        </mxCell>
        <mxCell id="JyQyaathDO7ByDEJY7KW-44" value="Play Loose Sound" style="rounded=0;whiteSpace=wrap;html=1;fillColor=#d5e8d4;strokeColor=#82b366;" vertex="1" parent="WIyWlLk6GJQsqaUBKTNV-1">
          <mxGeometry x="1110" y="1490" width="170" height="30" as="geometry" />
        </mxCell>
        <mxCell id="JyQyaathDO7ByDEJY7KW-48" style="edgeStyle=orthogonalEdgeStyle;rounded=0;orthogonalLoop=1;jettySize=auto;html=1;" edge="1" parent="WIyWlLk6GJQsqaUBKTNV-1" source="JyQyaathDO7ByDEJY7KW-46">
          <mxGeometry relative="1" as="geometry">
            <mxPoint x="1195" y="1760" as="targetPoint" />
          </mxGeometry>
        </mxCell>
        <mxCell id="JyQyaathDO7ByDEJY7KW-50" value="No" style="edgeLabel;html=1;align=center;verticalAlign=middle;resizable=0;points=[];" vertex="1" connectable="0" parent="JyQyaathDO7ByDEJY7KW-48">
          <mxGeometry x="-0.1103" y="-2" relative="1" as="geometry">
            <mxPoint x="-13" as="offset" />
          </mxGeometry>
        </mxCell>
        <mxCell id="JyQyaathDO7ByDEJY7KW-49" style="edgeStyle=orthogonalEdgeStyle;rounded=0;orthogonalLoop=1;jettySize=auto;html=1;" edge="1" parent="WIyWlLk6GJQsqaUBKTNV-1" source="JyQyaathDO7ByDEJY7KW-46">
          <mxGeometry relative="1" as="geometry">
            <mxPoint x="1400" y="1615" as="targetPoint" />
          </mxGeometry>
        </mxCell>
        <mxCell id="JyQyaathDO7ByDEJY7KW-51" value="Yes" style="edgeLabel;html=1;align=center;verticalAlign=middle;resizable=0;points=[];" vertex="1" connectable="0" parent="JyQyaathDO7ByDEJY7KW-49">
          <mxGeometry x="-0.3431" relative="1" as="geometry">
            <mxPoint y="-15" as="offset" />
          </mxGeometry>
        </mxCell>
        <mxCell id="JyQyaathDO7ByDEJY7KW-46" value="Additional Character ON" style="rhombus;whiteSpace=wrap;html=1;fillColor=#d5e8d4;strokeColor=#82b366;" vertex="1" parent="WIyWlLk6GJQsqaUBKTNV-1">
          <mxGeometry x="1072.5" y="1550" width="245" height="130" as="geometry" />
        </mxCell>
        <mxCell id="JyQyaathDO7ByDEJY7KW-56" style="edgeStyle=orthogonalEdgeStyle;rounded=0;orthogonalLoop=1;jettySize=auto;html=1;entryX=0.5;entryY=0;entryDx=0;entryDy=0;" edge="1" parent="WIyWlLk6GJQsqaUBKTNV-1" source="JyQyaathDO7ByDEJY7KW-52" target="JyQyaathDO7ByDEJY7KW-54">
          <mxGeometry relative="1" as="geometry" />
        </mxCell>
        <mxCell id="JyQyaathDO7ByDEJY7KW-52" value="Add 1 loose point" style="rounded=0;whiteSpace=wrap;html=1;fillColor=#ffe6cc;strokeColor=#d79b00;" vertex="1" parent="WIyWlLk6GJQsqaUBKTNV-1">
          <mxGeometry x="1400" y="1575" width="120" height="80" as="geometry" />
        </mxCell>
        <mxCell id="JyQyaathDO7ByDEJY7KW-55" style="edgeStyle=orthogonalEdgeStyle;rounded=0;orthogonalLoop=1;jettySize=auto;html=1;entryX=0;entryY=0.5;entryDx=0;entryDy=0;" edge="1" parent="WIyWlLk6GJQsqaUBKTNV-1" source="JyQyaathDO7ByDEJY7KW-53" target="JyQyaathDO7ByDEJY7KW-54">
          <mxGeometry relative="1" as="geometry" />
        </mxCell>
        <mxCell id="JyQyaathDO7ByDEJY7KW-53" value="Add 2 loose point" style="rounded=0;whiteSpace=wrap;html=1;fillColor=#ffe6cc;strokeColor=#d79b00;" vertex="1" parent="WIyWlLk6GJQsqaUBKTNV-1">
          <mxGeometry x="1140" y="1760" width="120" height="80" as="geometry" />
        </mxCell>
        <mxCell id="JyQyaathDO7ByDEJY7KW-59" style="edgeStyle=orthogonalEdgeStyle;rounded=0;orthogonalLoop=1;jettySize=auto;html=1;entryX=1;entryY=0.25;entryDx=0;entryDy=0;" edge="1" parent="WIyWlLk6GJQsqaUBKTNV-1" source="JyQyaathDO7ByDEJY7KW-54" target="JyQyaathDO7ByDEJY7KW-5">
          <mxGeometry relative="1" as="geometry">
            <mxPoint x="1650" y="1800" as="targetPoint" />
            <Array as="points">
              <mxPoint x="1700" y="1800" />
              <mxPoint x="1700" y="860" />
            </Array>
          </mxGeometry>
        </mxCell>
        <mxCell id="JyQyaathDO7ByDEJY7KW-60" value="No" style="edgeLabel;html=1;align=center;verticalAlign=middle;resizable=0;points=[];fontSize=19;" vertex="1" connectable="0" parent="JyQyaathDO7ByDEJY7KW-59">
          <mxGeometry x="0.0078" y="-2" relative="1" as="geometry">
            <mxPoint x="-92" y="632" as="offset" />
          </mxGeometry>
        </mxCell>
        <mxCell id="JyQyaathDO7ByDEJY7KW-61" style="edgeStyle=orthogonalEdgeStyle;rounded=0;orthogonalLoop=1;jettySize=auto;html=1;" edge="1" parent="WIyWlLk6GJQsqaUBKTNV-1" source="JyQyaathDO7ByDEJY7KW-54">
          <mxGeometry relative="1" as="geometry">
            <mxPoint x="1460" y="1950" as="targetPoint" />
          </mxGeometry>
        </mxCell>
        <mxCell id="JyQyaathDO7ByDEJY7KW-63" value="&lt;font style=&quot;font-size: 17px;&quot;&gt;Yes&lt;/font&gt;" style="edgeLabel;html=1;align=center;verticalAlign=middle;resizable=0;points=[];" vertex="1" connectable="0" parent="JyQyaathDO7ByDEJY7KW-61">
          <mxGeometry x="-0.0062" y="-4" relative="1" as="geometry">
            <mxPoint x="-20" y="-22" as="offset" />
          </mxGeometry>
        </mxCell>
        <mxCell id="JyQyaathDO7ByDEJY7KW-54" value="Loose Points = 6" style="rhombus;whiteSpace=wrap;html=1;fillColor=#d5e8d4;strokeColor=#82b366;fontSize=18;" vertex="1" parent="WIyWlLk6GJQsqaUBKTNV-1">
          <mxGeometry x="1337.5" y="1735" width="245" height="130" as="geometry" />
        </mxCell>
      </root>
    </mxGraphModel>
  </diagram>
</mxfile>
